<svg width="42" height="42" viewBox="0 0 42 42" fill="none" xmlns="http://www.w3.org/2000/svg">
<g clip-path="url(#clip0_30_796)">
<path d="M42 23.5263C41.9063 21.852 40.8994 20.529 40.1383 19.1708C38.0192 15.7637 35.8649 12.4268 33.933 8.94949C32.9378 7.2167 32.0363 5.44875 30.9005 3.73935C30.3268 2.91976 29.6595 1.97139 28.5004 1.56163C26.229 0.718607 24.6249 3.15391 22.9624 3.99694C19.8012 5.48384 18.2557 1.47964 15.1764 1.10497C13.0924 0.847423 9.29892 0.332286 8.5028 2.99001C8.15149 4.60573 7.76517 6.31516 7.35533 7.91918C6.31327 8.45779 5.30639 9.01975 4.32293 9.69887C3.8078 10.0852 3.28088 10.4482 2.81253 11.1155C2.39108 11.818 2.34425 12.5439 2.30908 13.1879C2.18031 15.6115 2.59007 18.2458 2.59007 20.5758C2.44959 21.8871 1.81738 22.3203 0.58803 22.9759C-0.852124 24.1585 0.681638 25.9499 1.6886 26.7694C3.59703 28.432 5.56402 29.8838 7.47245 31.4761C8.77205 32.6704 10.6103 33.3611 11.1488 35.1525C11.6054 36.3701 11.3127 37.4473 11.6289 38.782C12.987 42.5169 18.0684 40.8661 20.773 39.9178C23.2902 39.227 25.1519 36.8853 26.2524 34.7193C26.8496 33.771 27.6808 33.1621 28.7463 32.8928C32.1651 34.3095 35.6892 33.9934 35.9585 29.556C36.0171 28.6895 35.9585 27.8466 35.818 27.0036C38.0777 26.6523 41.8712 26.1021 42 23.5263ZM40.4662 24.3926C39.0378 25.423 36.8718 25.7274 35.0921 25.9732C32.5515 26.1606 29.8469 26.2777 27.353 25.6922C27.3413 25.6689 27.3413 25.622 27.3413 25.5986C27.9501 20.447 28.4887 15.2017 27.9384 10.0033C27.915 9.81591 27.7511 9.6754 27.5637 9.69887C27.3764 9.71056 27.2359 9.87443 27.2476 10.0618C27.6692 15.1315 27.1305 20.1543 26.3929 25.1771C26.3578 25.5986 26.2524 26.2191 26.7559 26.5353C29.2878 27.4159 32.0359 27.2326 34.6912 27.2073C35.4442 31.6591 33.756 33.7948 29.0739 31.9045C26.722 30.7761 24.3839 29.4338 21.8675 28.6328C21.6921 28.5912 21.5095 28.5746 21.2802 28.6785C21.0795 28.765 20.9865 28.9829 20.9306 29.1333C20.4394 31.2623 20.4134 33.4026 20.0906 35.5377C20.0281 35.9351 20.6417 36.0529 20.7286 35.6606C21.2249 33.721 21.3627 31.6735 21.8516 29.755C23.602 30.372 25.5801 31.4339 27.357 32.3043C27.1303 32.4192 26.9231 32.5398 26.7676 32.647C25.1753 33.7475 24.6016 35.8784 23.3488 37.1312C21.7096 38.782 19.1455 39.3909 16.9093 39.7656C15.7619 39.9178 14.5208 39.9411 13.6778 39.4611C12.6123 38.8757 12.7412 37.8805 12.6475 36.7214C12.5187 35.3984 12.0738 34.0519 11.0669 33.0216C8.06954 30.7854 5.13084 28.4788 2.33256 26.0552C1.77056 25.5167 0.506045 24.4395 1.18516 23.7604C4.33468 22.5076 3.60869 19.5571 3.45656 16.8993C3.50335 15.2368 3.12868 13.223 3.78437 11.7243C4.83199 10.4945 6.57539 9.65283 8.0383 8.87511C8.86706 8.52765 9.81455 8.0308 10.6688 7.64993C11.5937 7.25179 13.5491 6.27999 14.5676 5.95218C15.235 6.71325 15.3053 7.86065 15.4106 8.89097C15.5277 12.5557 14.6145 16.2437 13.5724 19.7562C13.4904 19.9903 13.6193 20.2362 13.8534 20.3065C14.0758 20.3767 14.3217 20.248 14.4037 20.0255C15.6916 15.5178 17.5298 10.5301 15.8087 5.89366C15.5862 5.48383 15.2116 4.85161 14.6496 4.86334C14.392 4.88678 14.3452 4.9336 14.1344 4.99212C12.4327 5.6265 10.369 6.64905 8.59525 7.42234C8.792 6.25099 9.02267 5.04612 9.24032 3.90324C9.70872 1.304 13.1158 1.85431 14.9774 2.13533C17.12 2.47482 18.1269 4.07892 20.0705 4.95703C21.1359 5.33162 22.3185 5.29653 23.3371 4.82818C25.0933 4.07892 26.2056 1.83087 28.1959 2.45147C28.9687 2.70899 29.5776 3.48179 30.1044 4.27795C33.1134 9.38272 36.0054 14.7451 39.2369 19.7211C39.9042 20.9153 40.8057 22.1798 40.9112 23.5145C40.9112 23.8775 40.7706 24.1234 40.4662 24.3926ZM20.3515 24.6151C20.5037 24.7322 20.5388 24.9429 20.4451 25.1068C18.9465 27.2377 17.5649 29.7433 15.235 31.2186C14.8837 31.4293 14.0173 31.5698 13.6543 31.0078C13.3851 30.6917 12.9987 30.0126 12.7762 29.6496C11.9566 28.2446 10.9615 26.3479 10.2824 25.1303C9.8141 25.224 9.18181 25.4698 8.72527 25.5167C8.57302 25.54 8.36222 25.5283 8.18666 25.4815C8.04615 25.4581 7.78856 25.1185 7.81199 24.9663C7.78856 21.77 8.06954 18.5151 7.77682 15.3539C7.73 14.9207 8.40912 14.8271 8.46764 15.2603C8.91256 18.3161 8.73688 21.4188 8.81888 24.4629C9.14672 24.3926 9.59164 24.2404 9.80241 24.1819C10.1771 24.1234 10.4346 23.9009 10.903 24.2522C12.0153 25.7742 13.3148 28.8067 14.4272 30.3638C14.4388 30.3873 14.4622 30.4224 14.4622 30.4224C14.5208 30.4224 14.673 30.4107 14.8135 30.3287C16.921 29.0174 18.2908 26.6991 19.8481 24.6971C19.9651 24.5331 20.1993 24.4981 20.3515 24.6151ZM23.8048 9.70904C23.9408 10.3298 23.5425 10.8788 23.2575 11.3731C22.5612 12.4829 21.6651 13.4897 20.7944 14.4259C20.5547 14.6948 20.1057 14.3764 20.2762 14.0633C20.9539 12.7765 22.1425 10.9852 22.5863 10.0612C22.4381 9.73592 21.3407 9.19422 20.9046 8.94885C20.1789 8.5731 19.41 8.26139 18.6277 7.94729C18.4187 7.86547 18.3156 7.62966 18.3975 7.42066C18.467 7.24306 18.6514 7.14252 18.8324 7.16636C20.3913 7.40072 21.9228 7.94393 23.2133 8.89033C23.4195 9.05372 23.689 9.31367 23.8048 9.70904Z" fill="white"/>
</g>
<defs>
<clipPath id="clip0_30_796">
<rect width="42" height="42" fill="white"/>
</clipPath>
</defs>
</svg>
