<svg width="42" height="42" viewBox="0 0 42 42" fill="none" xmlns="http://www.w3.org/2000/svg">
<g clip-path="url(#clip0_30_875)">
<path d="M11.8995 33.2248V37.9589C11.8717 38.9671 12.231 39.9477 12.9037 40.6993C13.5764 41.4509 14.5113 41.9163 15.5164 42C16.0406 42.0223 16.5633 41.9308 17.0487 41.7318C17.5341 41.5327 17.9707 41.2309 18.3283 40.8471C18.6711 41.2119 19.0849 41.5026 19.5443 41.7014C20.0037 41.9001 20.499 42.0026 20.9995 42.0026C21.5001 42.0026 21.9953 41.9001 22.4547 41.7014C22.9141 41.5026 23.328 41.2119 23.6707 40.8471C24.0141 41.2115 24.4284 41.5017 24.8881 41.7C25.3479 41.8983 25.8433 42.0004 26.344 42C26.3902 42 26.4364 42 26.484 42C27.4889 41.916 28.4235 41.4504 29.0959 40.6988C29.7682 39.9473 30.1274 38.9669 30.0995 37.9589V32.0733C30.1098 31.3609 29.9186 30.6601 29.5479 30.0517C29.4503 29.8989 29.3988 29.7213 29.3995 29.54V28.0301C29.3994 27.6385 29.2453 27.2626 28.9704 26.9836L27.3695 25.4373C27.3556 25.4209 27.348 25.4 27.348 25.3785C27.348 25.357 27.3556 25.3361 27.3695 25.3197L29.3015 23.3051C29.4446 23.1549 29.5548 22.9764 29.6248 22.7811C29.6949 22.5858 29.7233 22.378 29.7082 22.1711C29.6953 21.9695 29.6408 21.7728 29.5482 21.5933C29.4556 21.4138 29.3268 21.2554 29.1699 21.1281L27.2995 19.6L29.6795 17.3411C29.8157 17.1988 29.9224 17.0309 29.9937 16.8473C30.0649 16.6636 30.0992 16.4677 30.0946 16.2708C30.0802 14.3021 29.4715 12.3837 28.3482 10.7669C27.2249 9.15012 25.6395 7.91033 23.7995 7.21V6.3C24.1708 6.3 24.5269 6.1525 24.7895 5.88995C25.052 5.6274 25.1995 5.2713 25.1995 4.9V2.1C25.1995 1.54305 24.9783 1.0089 24.5844 0.615076C24.1906 0.221249 23.6565 0 23.0995 0L18.8995 0C18.3426 0 17.8084 0.221249 17.4146 0.615076C17.0208 1.0089 16.7995 1.54305 16.7995 2.1V4.9C16.7995 5.2713 16.947 5.6274 17.2096 5.88995C17.4721 6.1525 17.8282 6.3 18.1995 6.3V7.21C16.306 7.93639 14.6838 9.23122 13.5557 10.9167C12.4277 12.6021 11.8491 14.5954 11.8995 16.6229C11.8685 17.7682 12.1355 18.9019 12.6744 19.9129L13.828 22.2229C13.8337 22.2343 13.8357 22.2471 13.8337 22.2597C13.8316 22.2723 13.8258 22.2839 13.8168 22.2929L12.7493 23.3597C12.5157 23.5962 12.3691 23.9049 12.3335 24.2355C12.2979 24.566 12.3754 24.8989 12.5533 25.1797L13.457 26.5902C13.4642 26.6018 13.4673 26.6154 13.4659 26.629C13.4646 26.6425 13.4587 26.6552 13.4493 26.6651L12.8088 27.3336C12.65 27.4983 12.5318 27.6979 12.4636 27.9163C12.3955 28.1348 12.3793 28.3662 12.4164 28.592C12.4534 28.8178 12.5427 29.0319 12.677 29.2171C12.8114 29.4023 12.9872 29.5537 13.1903 29.659L14.3663 30.2722L12.6919 31.5819C12.4445 31.7782 12.2446 32.028 12.1074 32.3125C11.9702 32.597 11.8991 32.9089 11.8995 33.2248ZM18.1995 2.1C18.1995 1.91435 18.2733 1.7363 18.4045 1.60503C18.5358 1.47375 18.7139 1.4 18.8995 1.4H23.0995C23.2852 1.4 23.4632 1.47375 23.5945 1.60503C23.7258 1.7363 23.7995 1.91435 23.7995 2.1V4.9H18.1995V2.1ZM13.2995 33.2248C13.2986 33.1216 13.3209 33.0196 13.3649 32.9262C13.4089 32.8329 13.4734 32.7507 13.5536 32.6858L15.3876 31.2515C15.5549 31.1206 15.6867 30.9498 15.771 30.7548C15.8552 30.5598 15.8892 30.3467 15.8699 30.1352C15.8505 29.9236 15.7784 29.7203 15.6602 29.5438C15.5419 29.3673 15.3813 29.2233 15.193 29.1249L13.8378 28.42L13.8189 28.3052L14.4594 27.6367C14.6874 27.4005 14.8288 27.0942 14.8607 26.7675C14.8926 26.4407 14.8131 26.1128 14.6351 25.837L13.7314 24.4265C13.7239 24.4149 13.7206 24.401 13.7222 24.3872C13.7237 24.3734 13.7299 24.3606 13.7398 24.3509L14.8073 23.2841C15.0241 23.0674 15.1672 22.788 15.2162 22.4854C15.2652 22.1828 15.2177 21.8725 15.0803 21.5985L13.9218 19.278C13.4841 18.4627 13.2694 17.5464 13.2995 16.6215C13.2352 14.8041 13.7656 13.0154 14.8103 11.5269C15.855 10.0384 17.3568 8.93144 19.0878 8.3741C19.235 8.33299 19.3647 8.24485 19.4571 8.12314C19.5495 8.00142 19.5995 7.85281 19.5995 7.7V6.3H22.3995V7.7C22.3995 7.85281 22.4496 8.00142 22.542 8.12314C22.6344 8.24485 22.764 8.33299 22.9112 8.3741C24.5844 8.92371 26.0427 9.9848 27.0805 11.4077C28.1183 12.8305 28.6831 14.5433 28.6953 16.3044C28.6953 16.3268 28.6883 16.352 28.6953 16.3478L26.3412 18.5822C26.2021 18.714 26.0923 18.8736 26.019 19.0507C25.9457 19.2278 25.9106 19.4183 25.916 19.6099C25.9213 19.8014 25.967 19.9897 26.05 20.1624C26.1331 20.3351 26.2516 20.4884 26.3979 20.6122L28.2704 22.1963C28.2767 22.2019 28.2886 22.3293 28.2956 22.3363L26.3629 24.3509C26.0994 24.6332 25.9544 25.0059 25.9579 25.3921C25.9615 25.7782 26.1132 26.1483 26.3818 26.4257L27.9995 28.0301V29.54C27.9988 29.9892 28.1271 30.4292 28.3691 30.8077C28.5961 31.1901 28.7106 31.6288 28.6995 32.0733V37.9589C28.7292 38.6053 28.5109 39.2387 28.0892 39.7296C27.6675 40.2205 27.0743 40.5318 26.4308 40.6C25.9905 40.609 25.5565 40.4944 25.178 40.2692C24.7995 40.044 24.4917 39.7173 24.2895 39.326C24.2301 39.2133 24.141 39.119 24.0319 39.0532C23.9228 38.9874 23.7978 38.9526 23.6704 38.9526C23.543 38.9526 23.418 38.9874 23.3088 39.0532C23.1997 39.119 23.1107 39.2133 23.0512 39.326C22.8615 39.7086 22.5687 40.0305 22.2058 40.2556C21.843 40.4807 21.4244 40.5999 20.9974 40.5999C20.5704 40.5999 20.1519 40.4807 19.789 40.2556C19.4261 40.0305 19.1333 39.7086 18.9436 39.326C18.8783 39.2205 18.7871 39.1334 18.6787 39.0731C18.5703 39.0127 18.4482 38.981 18.3241 38.981C18.2 38.981 18.078 39.0127 17.9696 39.0731C17.8612 39.1334 17.77 39.2205 17.7046 39.326C17.5051 39.7184 17.1986 40.0463 16.8206 40.2718C16.4425 40.4972 16.0083 40.611 15.5682 40.6C14.9247 40.5318 14.3315 40.2205 13.9098 39.7296C13.4882 39.2387 13.2699 38.6053 13.2995 37.9589V33.2248Z" fill="white"/>
<path d="M18.8128 28.7057C18.6364 28.7281 18.4751 28.8169 18.3618 28.954C18.2484 29.091 18.1915 29.2661 18.2025 29.4436C18.2136 29.6211 18.2918 29.7878 18.4213 29.9097C18.5507 30.0316 18.7218 30.0997 18.8996 30.1001C18.9289 30.1 18.9581 30.0981 18.9871 30.0945L24.5871 29.3945C24.68 29.3851 24.77 29.3573 24.8519 29.3126C24.9339 29.2679 25.006 29.2073 25.0642 29.1343C25.1223 29.0613 25.1653 28.9775 25.1906 28.8876C25.2159 28.7978 25.2229 28.7038 25.2114 28.6112C25.1998 28.5186 25.1698 28.4293 25.1232 28.3484C25.0766 28.2676 25.0143 28.1969 24.9399 28.1405C24.8656 28.084 24.7807 28.0431 24.6903 28.0199C24.5999 27.9968 24.5058 27.9919 24.4135 28.0057L18.8128 28.7057Z" fill="white"/>
<path d="M16.7998 19.5997C16.8678 19.5994 16.9354 19.5895 17.0007 19.5703L24.0007 17.4703C24.1785 17.417 24.3279 17.2952 24.416 17.1318C24.5041 16.9683 24.5237 16.7766 24.4704 16.5988C24.4171 16.4209 24.2953 16.2715 24.1319 16.1834C23.9685 16.0953 23.7767 16.0758 23.5989 16.1291L16.5989 18.2291C16.4378 18.2773 16.2995 18.3818 16.2092 18.5236C16.1189 18.6653 16.0826 18.8349 16.107 19.0012C16.1314 19.1675 16.2148 19.3195 16.342 19.4294C16.4692 19.5392 16.6317 19.5997 16.7998 19.5997Z" fill="white"/>
<path d="M21.7003 25.2004C21.8739 25.2006 22.0414 25.1363 22.1702 25.0199C22.299 24.9036 22.38 24.7435 22.3975 24.5708C22.4149 24.3981 22.3676 24.225 22.2646 24.0853C22.1617 23.9455 22.0104 23.849 21.8403 23.8144L18.3403 23.1144C18.2489 23.0928 18.154 23.0899 18.0614 23.1057C17.9688 23.1216 17.8803 23.1559 17.8013 23.2067C17.7222 23.2574 17.6542 23.3236 17.6012 23.4012C17.5483 23.4788 17.5115 23.5663 17.4931 23.6584C17.4747 23.7505 17.475 23.8454 17.494 23.9375C17.513 24.0295 17.5504 24.1167 17.6038 24.194C17.6573 24.2712 17.7257 24.3369 17.8051 24.3872C17.8845 24.4374 17.9732 24.4712 18.0659 24.4864L21.5659 25.1864C21.6101 25.1957 21.6552 25.2003 21.7003 25.2004Z" fill="white"/>
</g>
<defs>
<clipPath id="clip0_30_875">
<rect width="42" height="42" fill="white"/>
</clipPath>
</defs>
</svg>
