<svg width="42" height="42" viewBox="0 0 42 42" fill="none" xmlns="http://www.w3.org/2000/svg">
<g clip-path="url(#clip0_30_833)">
<path d="M13.8096 39.3283L17.246 33.3465C17.3732 33.1556 17.3732 32.9011 17.246 32.7102L13.8096 26.7283C13.6823 26.5374 13.4914 26.4102 13.3005 26.4102H6.36415C6.17324 26.4102 5.9187 26.5374 5.85506 26.7283L2.4187 32.7102C2.29142 32.9011 2.29142 33.1556 2.4187 33.3465L5.85506 39.3283C5.98233 39.5192 6.17324 39.6465 6.36415 39.6465H13.3005C13.4914 39.6465 13.746 39.5192 13.8096 39.3283ZM6.74597 38.4374L3.62779 33.0283L6.74597 27.6192H12.9823L16.1005 33.0283L12.9823 38.4374H6.74597Z" fill="white"/>
<path d="M9.80016 30.1641C8.20925 30.1641 6.93652 31.4368 6.93652 33.0277C6.93652 34.6186 8.20925 35.8913 9.80016 35.8913C11.3911 35.8913 12.6638 34.6186 12.6638 33.0277C12.6638 31.5004 11.3911 30.1641 9.80016 30.1641ZM9.80016 34.6822C8.90925 34.6822 8.20925 33.9822 8.20925 33.0913C8.20925 32.2004 8.90925 31.5004 9.80016 31.5004C10.6911 31.5004 11.3911 32.2004 11.3911 33.0913C11.4547 33.9186 10.6911 34.6822 9.80016 34.6822Z" fill="white"/>
<path d="M32.0734 4.26385L25.3916 2.41839C25.2007 2.35476 24.9461 2.41839 24.8189 2.6093L19.9189 7.5093C19.728 7.63658 19.6643 7.89112 19.728 8.08203L21.5098 14.7639C21.5734 14.9548 21.7643 15.1457 21.9552 15.2093L28.6371 17.0548H28.828C29.0189 17.0548 29.1461 16.9911 29.2734 16.8638L34.1734 11.9639C34.3007 11.8366 34.3643 11.582 34.3643 11.3911L32.5189 4.64567C32.4552 4.45476 32.2643 4.26385 32.0734 4.26385ZM28.6371 15.7184L22.6552 14.1275L21.0007 8.14567L25.3916 3.75476L31.3734 5.34567L32.9643 11.3275L28.6371 15.7184Z" fill="white"/>
<path d="M26.9825 6.87305C26.2189 6.87305 25.5189 7.19123 24.9461 7.70032C23.8643 8.78214 23.8643 10.6276 24.9461 11.7094C25.4552 12.2185 26.2189 12.5367 26.9825 12.5367C27.7461 12.5367 28.4461 12.2185 29.0189 11.7094C30.1007 10.6276 30.1643 8.78214 29.0189 7.70032C28.5098 7.19123 27.7461 6.87305 26.9825 6.87305ZM28.1279 10.8821C27.4916 11.5185 26.4734 11.5185 25.837 10.8821C25.2007 10.2458 25.2007 9.22759 25.837 8.59123C26.1552 8.27305 26.537 8.14577 26.9825 8.14577C27.4279 8.14577 27.8098 8.33668 28.1279 8.59123C28.7643 9.22759 28.7643 10.2458 28.1279 10.8821Z" fill="white"/>
<path d="M40.1553 11.7733C39.2007 11.2006 37.928 11.3915 36.6553 12.3461C34.4917 14.0006 32.328 17.6915 32.2007 20.3642C30.2917 19.7279 27.6826 19.6642 26.9189 19.6642C25.7098 19.6642 19.5371 19.7915 19.5371 22.4642V30.1006C19.5371 30.4188 19.7917 30.6733 20.1098 30.737C20.4917 30.8006 20.8735 31.3097 20.8735 32.0097C20.8735 32.7733 20.4917 33.2824 20.1098 33.3461C19.7917 33.4097 19.5371 33.6642 19.5371 33.9824V38.6279C19.5371 41.3006 25.7098 41.4279 26.9189 41.4279C28.128 41.4279 34.3007 41.3006 34.3007 38.6279V29.4642C34.3644 29.2733 34.3644 29.0824 34.3007 28.8915V23.2915H34.5553C36.3371 23.2915 38.3098 21.3824 39.6462 19.0915C40.4735 17.6915 41.0462 16.2279 41.2371 15.0188C41.6189 13.0461 40.8553 12.1551 40.1553 11.7733ZM20.7462 22.4642C20.7462 21.8279 22.9735 20.8733 26.9189 20.8733C30.8644 20.8733 33.0917 21.8279 33.0917 22.4642C33.0917 23.1006 30.8644 24.0552 26.9189 24.0552C22.9098 24.0552 20.7462 23.1006 20.7462 22.4642ZM26.9189 40.1551C22.9735 40.1551 20.7462 39.2006 20.7462 38.5642V36.9097C22.4007 37.8006 25.2007 37.9915 26.3462 37.9915C26.6644 37.9915 26.9826 37.737 26.9826 37.4188C26.9826 37.1006 26.728 36.7824 26.4098 36.7824C22.7189 36.7188 20.8098 35.8279 20.8098 35.1915V34.3642C21.5735 33.9824 22.1462 33.0915 22.1462 32.0097C22.1462 30.9279 21.6371 29.9733 20.8098 29.6551V27.7461C22.4644 28.637 25.2644 28.8279 26.4098 28.8279C26.728 28.8279 27.0462 28.5733 27.0462 28.2552C27.0462 27.937 26.7917 27.6188 26.4735 27.6188C22.7826 27.5552 20.8735 26.6642 20.8735 26.0279V24.1824C21.2553 24.3733 21.7007 24.5642 22.2098 24.6915C23.4826 25.0733 25.2007 25.2642 27.0462 25.2642C27.9371 25.2642 31.3735 25.2006 33.2189 24.1824V29.337C32.9644 30.037 31.3098 31.1824 28.1917 32.137C27.8735 32.2642 27.6826 32.5824 27.8098 32.9006C27.9371 33.2188 28.2553 33.4097 28.5735 33.2824C29.528 32.9642 31.7553 32.2006 33.2189 31.1188V38.5006C33.0917 39.2006 30.8644 40.1551 26.9189 40.1551ZM40.0917 14.8279C39.9007 15.9097 39.3917 17.1824 38.628 18.4552C37.3553 20.5552 35.4462 22.337 34.2371 22.0188C34.1098 21.5733 33.8553 21.2551 33.4735 21.0006C33.1553 19.0279 35.128 15.0824 37.4189 13.3642C38.0553 12.9188 38.8826 12.4733 39.5826 12.8551C40.1553 13.1733 40.1553 14.1279 40.0917 14.8279Z" fill="white"/>
<path d="M18.9004 19.8549V11.5185C18.9004 9.60945 14.7004 8.6549 10.5004 8.59126C13.8095 6.04581 16.6731 2.80036 15.5276 1.27308C15.3367 1.01854 14.8913 0.636719 14.064 0.636719C12.4095 0.636719 9.41855 2.03672 6.42764 4.20036C3.05491 6.68217 -0.0632702 9.99126 0.700366 11.7094V19.8549C0.700366 21.8913 5.40946 22.8458 9.73673 22.8458C14.1913 22.8458 18.9004 21.8913 18.9004 19.8549ZM17.6276 11.5185C17.6276 12.0276 14.9549 13.2367 9.80037 13.2367C6.74582 13.2367 4.51855 12.7913 3.24582 12.3458C4.70946 12.0276 6.61855 11.1367 8.65491 9.80036H9.73673C15.0185 9.80036 17.6276 11.0094 17.6276 11.5185ZM7.19128 5.1549C10.3095 2.86399 12.9822 1.84581 14.064 1.84581C14.3822 1.84581 14.5095 1.90945 14.5095 1.97308C14.8276 2.41854 13.364 4.96399 9.22764 7.9549C5.60037 10.6276 2.22764 11.6458 1.84582 11.1367C1.59128 10.7549 2.99128 8.20945 7.19128 5.1549ZM1.97309 19.8549V17.3094C3.62764 18.264 6.80946 18.7094 9.80037 18.7094C10.1185 18.7094 10.4367 18.4549 10.4367 18.0731C10.4367 17.7549 10.1822 17.4367 9.80037 17.4367C4.64582 17.4367 1.97309 16.2276 1.97309 15.7185V13.1731C3.94582 14.2549 7.57309 14.5731 9.80037 14.5731C12.0276 14.5731 15.6549 14.2549 17.6276 13.1731V19.8549C17.6276 20.364 14.9549 21.5731 9.80037 21.5731C4.64582 21.5731 1.97309 20.364 1.97309 19.8549Z" fill="white"/>
</g>
<defs>
<clipPath id="clip0_30_833">
<rect width="42" height="42" fill="white"/>
</clipPath>
</defs>
</svg>
