<svg width="42" height="42" viewBox="0 0 42 42" fill="none" xmlns="http://www.w3.org/2000/svg">
<g clip-path="url(#clip0_30_547)">
<path d="M5.10254 12.3047L7.28203 38.615C7.43821 40.5124 9.05439 42 10.959 42H31.0407C32.9453 42 34.5614 40.5124 34.7176 38.615L36.897 12.3047H5.10254ZM14.8463 37.0781C14.2022 37.0781 13.6603 36.5771 13.6194 35.9245L12.389 16.073C12.3469 15.3941 12.8624 14.8101 13.5401 14.768C14.243 14.7187 14.8018 15.2403 14.8451 15.9191L16.0755 35.7707C16.1191 36.4737 15.5628 37.0781 14.8463 37.0781ZM22.2303 35.8477C22.2303 36.5278 21.6799 37.0781 20.9998 37.0781C20.3197 37.0781 19.7693 36.5278 19.7693 35.8477V15.9961C19.7693 15.316 20.3197 14.7656 20.9998 14.7656C21.6799 14.7656 22.2303 15.316 22.2303 15.9961V35.8477ZM29.6106 16.073L28.3801 35.9246C28.3397 36.5705 27.8013 37.1088 27.0752 37.0757C26.3974 37.0337 25.882 36.4497 25.924 35.7708L27.1545 15.9192C27.1966 15.2403 27.7914 14.7464 28.4595 14.7681C29.1372 14.8102 29.6527 15.3941 29.6106 16.073Z" fill="#00A94B"/>
<path d="M36.9961 4.92188H29.6133V3.69141C29.6133 1.65588 27.9574 0 25.9219 0H16.0781C14.0426 0 12.3867 1.65588 12.3867 3.69141V4.92188H5.00391C3.64473 4.92188 2.54297 6.02364 2.54297 7.38281C2.54297 8.74182 3.64473 9.84375 5.00391 9.84375C16.3214 9.84375 25.679 9.84375 36.9961 9.84375C38.3553 9.84375 39.457 8.74182 39.457 7.38281C39.457 6.02364 38.3553 4.92188 36.9961 4.92188ZM27.1523 4.92188H14.8477V3.69141C14.8477 3.01252 15.3992 2.46094 16.0781 2.46094H25.9219C26.6008 2.46094 27.1523 3.01252 27.1523 3.69141V4.92188Z" fill="#00A94B"/>
</g>
<defs>
<clipPath id="clip0_30_547">
<rect width="42" height="42" fill="white"/>
</clipPath>
</defs>
</svg>
