<svg width="42" height="42" viewBox="0 0 42 42" fill="none" xmlns="http://www.w3.org/2000/svg">
<path d="M40.6027 9.62089C39.7643 8.74257 38.6065 8.22356 37.289 8.22356H30.6616V8.14371C30.6616 7.14561 30.2624 6.18743 29.5837 5.54865C28.9049 4.86994 27.9867 4.4707 26.9886 4.4707H15.0114C13.9734 4.4707 13.0551 4.86994 12.3764 5.54865C11.6977 6.22736 11.2985 7.14561 11.2985 8.14371V8.22356H4.71103C3.39354 8.22356 2.23574 8.74257 1.39734 9.62089C0.558935 10.4593 0 11.657 0 12.9346V32.8167C0 34.1342 0.519011 35.292 1.39734 36.1304C2.23574 36.9688 3.43346 37.5277 4.71103 37.5277H37.289C38.6065 37.5277 39.7643 37.0087 40.6027 36.1304C41.4411 35.292 42 34.0943 42 32.8167V12.9346C42 11.6171 41.481 10.4593 40.6027 9.62089ZM39.924 32.8167H39.884C39.884 33.5353 39.6046 34.1741 39.1255 34.6532C38.6464 35.1323 38.0076 35.4118 37.289 35.4118H4.71103C3.9924 35.4118 3.35361 35.1323 2.87452 34.6532C2.39544 34.1741 2.11597 33.5353 2.11597 32.8167V12.9346C2.11597 12.216 2.39544 11.5772 2.87452 11.0981C3.35361 10.619 3.9924 10.3395 4.71103 10.3395H12.4164C13.0152 10.3395 13.4943 9.86044 13.4943 9.26158V8.10378C13.4943 7.66462 13.654 7.26538 13.9335 6.98591C14.2129 6.70644 14.6122 6.54675 15.0513 6.54675H26.9886C27.4278 6.54675 27.827 6.70644 28.1065 6.98591C28.3859 7.26538 28.5456 7.66462 28.5456 8.10378V9.26158C28.5456 9.86044 29.0247 10.3395 29.6236 10.3395H37.3289C38.0475 10.3395 38.6863 10.619 39.1654 11.0981C39.6445 11.5772 39.924 12.216 39.924 12.9346V32.8167Z" fill="black"/>
<path d="M21 13.0547C18.2852 13.0547 15.8099 14.1726 14.0532 15.9292C12.2567 17.7258 11.1787 20.1612 11.1787 22.876C11.1787 25.5908 12.2966 28.0661 14.0532 29.8227C15.8498 31.6193 18.2852 32.6973 21 32.6973C23.7148 32.6973 26.1901 31.5794 27.9468 29.8227C29.7434 28.0262 30.8213 25.5908 30.8213 22.876C30.8213 20.1612 29.7034 17.6859 27.9468 15.9292C26.1901 14.1726 23.7148 13.0547 21 13.0547ZM26.4297 28.3456C25.0323 29.703 23.116 30.5813 21 30.5813C18.884 30.5813 16.9677 29.703 15.5703 28.3456C14.173 26.9482 13.3346 25.0319 13.3346 22.9159C13.3346 20.7999 14.2129 18.8836 15.5703 17.4862C16.9677 16.0889 18.884 15.2505 21 15.2505C23.116 15.2505 25.0323 16.1288 26.4297 17.4862C27.827 18.8836 28.6654 20.7999 28.6654 22.9159C28.7053 25.0319 27.827 26.9482 26.4297 28.3456Z" fill="black"/>
<path d="M35.2131 16.9262C36.2935 16.9262 37.1694 16.0504 37.1694 14.9699C37.1694 13.8895 36.2935 13.0137 35.2131 13.0137C34.1327 13.0137 33.2568 13.8895 33.2568 14.9699C33.2568 16.0504 34.1327 16.9262 35.2131 16.9262Z" fill="black"/>
</svg>
