<svg width="42" height="42" viewBox="0 0 42 42" fill="none" xmlns="http://www.w3.org/2000/svg">
<g clip-path="url(#clip0_30_664)">
<path d="M21 0C9.42105 0 0 9.42105 0 21C0 32.5789 9.42105 42 21 42C32.5789 42 42 32.5789 42 21C42 9.42105 32.5789 0 21 0ZM32.7368 15.4737L19.3158 28.7895C18.5263 29.5789 17.2632 29.6316 16.4211 28.8421L9.31579 22.3684C8.47368 21.5789 8.42105 20.2632 9.1579 19.4211C9.94737 18.5789 11.2632 18.5263 12.1053 19.3158L17.7368 24.4737L29.7368 12.4737C30.5789 11.6316 31.8947 11.6316 32.7368 12.4737C33.5789 13.3158 33.5789 14.6316 32.7368 15.4737Z" fill="#00A94B"/>
</g>
<defs>
<clipPath id="clip0_30_664">
<rect width="42" height="42" fill="white"/>
</clipPath>
</defs>
</svg>
