<svg width="42" height="42" viewBox="0 0 42 42" fill="none" xmlns="http://www.w3.org/2000/svg">
<path d="M13.8075 40.0112H2.34277C1.98184 40.0112 1.68652 39.7159 1.68652 39.355V19.6741C1.68652 18.2303 2.28371 16.8325 3.32715 15.8416L3.70777 15.4806C4.49527 14.7325 4.94152 13.6825 4.94152 12.5931V6.14875C4.94152 5.31531 5.62402 4.63281 6.45746 4.63281H9.69934C10.5328 4.63281 11.2153 5.30875 11.2153 6.14875V12.5931C11.2153 13.6759 11.6681 14.7259 12.449 15.4806L12.8296 15.8416C13.8731 16.8391 14.4703 18.2369 14.4703 19.6741V39.3484C14.4637 39.7159 14.1684 40.0112 13.8075 40.0112ZM2.99902 38.6987H13.1512V19.6741C13.1512 18.5913 12.6984 17.5413 11.9175 16.7866L11.5368 16.4256C10.4934 15.4281 9.89621 14.0303 9.89621 12.5931V6.14875C9.89621 6.03719 9.80434 5.94531 9.69277 5.94531H6.4509C6.33934 5.94531 6.24746 6.03719 6.24746 6.14875V12.5931C6.24746 14.0369 5.65027 15.4347 4.60684 16.4256L4.22621 16.7866C3.43871 17.5347 2.99246 18.5847 2.99246 19.6741V38.6987H2.99902Z" fill="white"/>
<path d="M34.9915 39.6043C34.7225 39.6043 34.4665 39.4403 34.3747 39.1712L31.9137 32.2871C31.5462 31.2634 30.7719 30.4234 29.7875 29.9903L29.3019 29.7737C27.9894 29.1962 26.9525 28.0806 26.4669 26.7221L23.7828 19.2146C23.7237 19.044 23.7369 18.8537 23.8156 18.6896L24.695 17.0031C24.8459 16.7078 25.1937 16.5765 25.5022 16.6881L26.7228 17.1409L27.1559 16.1565C27.2872 15.8546 27.6219 15.6971 27.9369 15.789L30.214 16.4387L30.3125 15.0015C30.3256 14.8178 30.4109 14.6471 30.5553 14.5356C30.6997 14.424 30.8834 14.3715 31.0606 14.3978L33.305 14.7259L33.7709 12.79C33.8365 12.5078 34.0859 12.3043 34.3747 12.2846C34.6634 12.265 34.9325 12.4487 35.0309 12.7178L38.4959 22.4171C38.9815 23.7821 38.8897 25.2981 38.24 26.5778L38.0037 27.0437C37.5115 28.015 37.4394 29.1568 37.8069 30.174L40.2678 37.0581C40.3925 37.3993 40.2153 37.7734 39.874 37.8981L35.2081 39.565C35.1359 39.5912 35.0637 39.6043 34.9915 39.6043ZM27.7006 26.2693C28.0681 27.2931 28.8425 28.1265 29.8334 28.5662L30.319 28.7828C31.625 29.3603 32.6619 30.4759 33.1475 31.8409L35.3853 38.1081L38.8175 36.8809L36.5797 30.6137C36.094 29.2553 36.1859 27.7328 36.8422 26.4531L37.0784 25.9871C37.564 25.0225 37.6362 23.8871 37.2687 22.8568L34.5453 15.2312L34.4534 15.6053C34.3747 15.9334 34.0597 16.15 33.7184 16.104L31.579 15.789L31.474 17.3312C31.4609 17.5281 31.3559 17.7118 31.1984 17.8234C31.0344 17.935 30.8309 17.9678 30.6406 17.9153L28.1403 17.2L27.6875 18.2303C27.5497 18.5518 27.1822 18.7028 26.8606 18.5846L25.594 18.1187L25.1215 19.0309L27.7006 26.2693Z" fill="white"/>
<path d="M27.7 40.0115H16.2354C15.8744 40.0115 15.5791 39.7162 15.5791 39.3552V29.9774C15.5791 29.8527 15.6185 29.7281 15.6841 29.6165L17.1016 27.4443C17.2854 27.1621 17.6594 27.0637 17.9613 27.2212L19.871 28.2318L20.4879 26.8143C20.5666 26.6306 20.7241 26.4993 20.9144 26.4468C21.1047 26.3943 21.3082 26.4337 21.4722 26.5452L23.5854 28.0612L24.3532 27.2409C24.5894 26.9849 24.9897 26.9652 25.2522 27.1884L26.2825 28.0546L27.2538 27.1556C27.4441 26.9784 27.7263 26.9324 27.9625 27.0374C28.1988 27.1424 28.3563 27.3787 28.3563 27.6412V39.3421C28.3563 39.7162 28.061 40.0115 27.7 40.0115ZM16.8916 38.699H27.0438V29.1506L26.755 29.4196C26.5122 29.6427 26.1382 29.6559 25.8888 29.4393L24.8913 28.5993L24.1497 29.3868C23.9266 29.6296 23.5525 29.6624 23.29 29.4721L21.3672 28.094L20.7897 29.4196C20.7175 29.5902 20.5797 29.7149 20.4025 29.774C20.2319 29.8331 20.0416 29.8199 19.8775 29.7346L17.876 28.6715L16.8916 30.1743V38.699Z" fill="white"/>
<path d="M10.0995 5.95203H6.05047C5.44016 5.95203 4.94141 5.45328 4.94141 4.84297V3.41234C4.94141 2.62484 5.57797 1.98828 6.36547 1.98828H9.78453C10.572 1.98828 11.2086 2.62484 11.2086 3.41234V4.83641C11.2086 5.45328 10.7098 5.95203 10.0995 5.95203ZM6.25391 4.63953H9.90266V3.41234C9.90266 3.35328 9.85016 3.30078 9.79109 3.30078H6.36547C6.30641 3.30078 6.25391 3.35328 6.25391 3.41234V4.63953Z" fill="white"/>
<path d="M4.90868 28.415C4.54774 28.415 4.25243 28.1197 4.25243 27.7588V21.2882C4.07524 17.2588 6.25399 16.596 6.34587 16.5697C6.69368 16.4713 7.05462 16.6747 7.15962 17.0225C7.25806 17.3638 7.06118 17.7247 6.72649 17.8297C6.66743 17.8494 5.44024 18.3744 5.56493 21.2619V27.7588V27.7654C5.56493 28.1263 5.27618 28.415 4.90868 28.415Z" fill="white"/>
</svg>
