<svg width="42" height="42" viewBox="0 0 42 42" fill="none" xmlns="http://www.w3.org/2000/svg">
<g clip-path="url(#clip0_30_563)">
<path d="M37.6626 3.05568H28.0495L27.2965 1.55762C26.9711 0.904409 26.3039 0.491627 25.5741 0.492202H16.4178C15.6894 0.489412 15.0234 0.90326 14.7035 1.55762L13.9505 3.05568H4.3374C3.62955 3.05568 3.05566 3.62957 3.05566 4.33742V6.90089C3.05566 7.60874 3.62955 8.18263 4.3374 8.18263H37.6626C38.3704 8.18263 38.9443 7.60874 38.9443 6.90089V4.33742C38.9443 3.62957 38.3704 3.05568 37.6626 3.05568Z" fill="#898888"/>
<path d="M7.31743 37.9029C7.44434 39.9291 9.1245 41.5076 11.1546 41.5078H30.8454C32.8755 41.5076 34.5557 39.9291 34.6826 37.9029L36.3809 10.7461H5.61914L7.31743 37.9029Z" fill="#898888"/>
</g>
<defs>
<clipPath id="clip0_30_563">
<rect width="42" height="42" fill="white"/>
</clipPath>
</defs>
</svg>
